{
  "accessors": [
    {
      "bufferView": 2,
      "componentType": 5126,
      "count": 65532,
      "max": [
        1.2556400299072266,
        1.4493000507354736,
        0.922789990901947
      ],
      "min": [
        -1.2556400299072266,
        -0.8168900012969971,
        -1.2232400178909302
      ],
      "type": "VEC3"
    },
    {
      "bufferView": 2,
      "byteOffset": 786384,
      "componentType": 5126,
      "count": 65532,
      "max": [
        0.9999691843986511,
        0.9998947978019714,
        0.9999163150787354
      ],
      "min": [
        -1.0,
        -0.9998947978019714,
        -0.9999163150787354
      ],
      "type": "VEC3"
    },
    {
      "bufferView": 3,
      "componentType": 5126,
      "count": 65532,
      "max": [
        0.9974963665008545,
        0.9999669790267944,
        0.9999898076057434,
        1.0
      ],
      "min": [
        -0.9998071193695068,
        -0.9997949600219727,
        -0.9999892115592957,
        -1.0
      ],
      "type": "VEC4"
    },
    {
      "bufferView": 1,
      "componentType": 5126,
      "count": 65532,
      "max": [
        0.9442300200462341,
        0.9670600295066833
      ],
      "min": [
        0.0,
        0.0
      ],
      "type": "VEC2"
    },
    {
      "bufferView": 0,
      "componentType": 5125,
      "count": 363492,
      "type": "SCALAR"
    },
    {
      "bufferView": 2,
      "byteOffset": 1572768,
      "componentType": 5126,
      "count": 65532,
      "max": [
        1.2556400299072266,
        1.47107994556427,
        1.0130300521850586
      ],
      "min": [
        -1.2556400299072266,
        -1.030809998512268,
        -1.2611600160598755
      ],
      "type": "VEC3"
    },
    {
      "bufferView": 2,
      "byteOffset": 2359152,
      "componentType": 5126,
      "count": 65532,
      "max": [
        1.0,
        1.0,
        1.0
      ],
      "min": [
        -1.0,
        -0.9999485611915588,
        -1.0
      ],
      "type": "VEC3"
    },
    {
      "bufferView": 3,
      "byteOffset": 1048512,
      "componentType": 5126,
      "count": 65532,
      "max": [
        0.997124195098877,
        0.9999600648880005,
        1.0,
        1.0
      ],
      "min": [
        -0.9999932050704956,
        -0.9999746680259705,
        -0.9998961091041565,
        -1.0
      ],
      "type": "VEC4"
    },
    {
      "bufferView": 1,
      "byteOffset": 524256,
      "componentType": 5126,
      "count": 65532,
      "max": [
        1.0,
        1.0
      ],
      "min": [
        0.0,
        0.0
      ],
      "type": "VEC2"
    },
    {
      "bufferView": 0,
      "byteOffset": 1453968,
      "componentType": 5125,
      "count": 343392,
      "type": "SCALAR"
    },
    {
      "bufferView": 2,
      "byteOffset": 3145536,
      "componentType": 5126,
      "count": 38693,
      "max": [
        1.1778899431228638,
        1.47107994556427,
        1.0130300521850586
      ],
      "min": [
        -1.1600600481033325,
        -1.0376299619674683,
        -1.2585400342941284
      ],
      "type": "VEC3"
    },
    {
      "bufferView": 2,
      "byteOffset": 3609852,
      "componentType": 5126,
      "count": 38693,
      "max": [
        1.0,
        0.9999485611915588,
        1.0
      ],
      "min": [
        -1.0,
        -1.0,
        -0.999987781047821
      ],
      "type": "VEC3"
    },
    {
      "bufferView": 3,
      "byteOffset": 2097024,
      "componentType": 5126,
      "count": 38693,
      "max": [
        1.0,
        0.9996252655982971,
        0.999992311000824,
        1.0
      ],
      "min": [
        -0.9999974370002747,
        -0.999636709690094,
        -0.9998871684074402,
        -1.0
      ],
      "type": "VEC4"
    },
    {
      "bufferView": 1,
      "byteOffset": 1048512,
      "componentType": 5126,
      "count": 38693,
      "max": [
        1.0,
        0.9926900267601013
      ],
      "min": [
        0.0,
        0.0
      ],
      "type": "VEC2"
    },
    {
      "bufferView": 0,
      "byteOffset": 2827536,
      "componentType": 5125,
      "count": 198297,
      "type": "SCALAR"
    }
  ],
  "asset": {
    "extras": {
      "author": "Trafel (https://sketchfab.com/Trafel)",
      "license": "CC-BY-4.0 (http://creativecommons.org/licenses/by/4.0/)",
      "source": "https://sketchfab.com/3d-models/blender-shaderball-8b5096ff89e84b8ea7ebe711123558eb",
      "title": "Blender Shaderball"
    },
    "generator": "Sketchfab-12.67.0",
    "version": "2.0"
  },
  "bufferViews": [
    {
      "buffer": 0,
      "byteLength": 3620724,
      "name": "floatBufferViews",
      "target": 34963
    },
    {
      "buffer": 0,
      "byteLength": 1358056,
      "byteOffset": 3620724,
      "byteStride": 8,
      "name": "floatBufferViews",
      "target": 34962
    },
    {
      "buffer": 0,
      "byteLength": 4074168,
      "byteOffset": 4978780,
      "byteStride": 12,
      "name": "floatBufferViews",
      "target": 34962
    },
    {
      "buffer": 0,
      "byteLength": 2716112,
      "byteOffset": 9052948,
      "byteStride": 16,
      "name": "floatBufferViews",
      "target": 34962
    }
  ],
  "buffers": [
    {
      "byteLength": 11769060,
      "uri": "scene.bin"
    }
  ],
  "images": [
    {
      "uri": "textures/Baked_baseColor.png"
    },
    {
      "uri": "textures/Baked_metallicRoughness.png"
    },
    {
      "uri": "textures/Baked_normal.png"
    }
  ],
  "materials": [
    {
      "doubleSided": true,
      "name": "Baked",
      "normalTexture": {
        "index": 2
      },
      "occlusionTexture": {
        "index": 1
      },
      "pbrMetallicRoughness": {
        "baseColorTexture": {
          "index": 0
        },
        "metallicFactor": 0.0,
        "metallicRoughnessTexture": {
          "index": 1
        }
      }
    }
  ],
  "meshes": [
    {
      "name": "baked shaderball_0",
      "primitives": [
        {
          "attributes": {
            "NORMAL": 1,
            "POSITION": 0,
            "TANGENT": 2,
            "TEXCOORD_0": 3
          },
          "indices": 4,
          "material": 0,
          "mode": 4
        }
      ]
    },
    {
      "name": "baked shaderball_0",
      "primitives": [
        {
          "attributes": {
            "NORMAL": 6,
            "POSITION": 5,
            "TANGENT": 7,
            "TEXCOORD_0": 8
          },
          "indices": 9,
          "material": 0,
          "mode": 4
        }
      ]
    },
    {
      "name": "baked shaderball_0",
      "primitives": [
        {
          "attributes": {
            "NORMAL": 11,
            "POSITION": 10,
            "TANGENT": 12,
            "TEXCOORD_0": 13
          },
          "indices": 14,
          "material": 0,
          "mode": 4
        }
      ]
    }
  ],
  "nodes": [
    {
      "children": [
        1
      ],
      "matrix": [
        1.0,
        0.0,
        0.0,
        0.0,
        0.0,
        2.220446049250313e-16,
        -1.0,
        0.0,
        0.0,
        1.0,
        2.220446049250313e-16,
        0.0,
        0.0,
        0.0,
        0.0,
        1.0
      ],
      "name": "Sketchfab_model"
    },
    {
      "children": [
        2
      ],
      "name": "Root"
    },
    {
      "children": [
        3,
        4,
        5
      ],
      "matrix": [
        43.67206,
        1.0000000000000004e-05,
        -0.0,
        0.0,
        -1.0000000000000004e-05,
        42.71772,
        -9.079930000000001,
        0.0,
        -0.0,
        9.01054,
        42.391259999999996,
        0.0,
        0.0,
        0.0,
        48.92202,
        1.0
      ],
      "name": "baked shaderball"
    },
    {
      "mesh": 0,
      "name": "baked shaderball_0"
    },
    {
      "mesh": 1,
      "name": "baked shaderball_0"
    },
    {
      "mesh": 2,
      "name": "baked shaderball_0"
    }
  ],
  "samplers": [
    {
      "magFilter": 9729,
      "minFilter": 9987,
      "wrapS": 10497,
      "wrapT": 10497
    }
  ],
  "scene": 0,
  "scenes": [
    {
      "name": "Sketchfab_Scene",
      "nodes": [
        0
      ]
    }
  ],
  "textures": [
    {
      "sampler": 0,
      "source": 0
    },
    {
      "sampler": 0,
      "source": 1
    },
    {
      "sampler": 0,
      "source": 2
    }
  ]
}
