{
  "accessors": [
    {
      "bufferView": 2,
      "componentType": 5126,
      "count": 8030,
      "max": [
        0.41344401240348816,
        1.0,
        0.40112799406051636
      ],
      "min": [
        -0.41344401240348816,
        -1.0,
        -0.40112799406051636
      ],
      "type": "VEC3"
    },
    {
      "bufferView": 2,
      "byteOffset": 96360,
      "componentType": 5126,
      "count": 8030,
      "max": [
        0.9999890923500061,
        1.0,
        1.0
      ],
      "min": [
        -0.9999890923500061,
        -1.0,
        -0.9997609853744507
      ],
      "type": "VEC3"
    },
    {
      "bufferView": 3,
      "componentType": 5126,
      "count": 8030,
      "max": [
        1.0,
        0.999999463558197,
        0.9999745488166809,
        1.0
      ],
      "min": [
        -0.9999988079071045,
        -0.9999712109565735,
        -1.0,
        1.0
      ],
      "type": "VEC4"
    },
    {
      "bufferView": 1,
      "componentType": 5126,
      "count": 8030,
      "max": [
        0.986532986164093,
        0.9917389750480652
      ],
      "min": [
        0.004819000139832497,
        0.004819000139832497
      ],
      "type": "VEC2"
    },
    {
      "bufferView": 0,
      "componentType": 5125,
      "count": 40650,
      "type": "SCALAR"
    }
  ],
  "asset": {
    "extras": {
      "author": "Warkarma (https://sketchfab.com/warkarma)",
      "license": "CC-BY-4.0 (http://creativecommons.org/licenses/by/4.0/)",
      "source": "https://sketchfab.com/3d-models/kerosene-lamp-vintage-ww2-8311e7e4233a429ab7e70c451d9c0367",
      "title": "Kerosene Lamp (Vintage, WW2)"
    },
    "generator": "Sketchfab-12.65.0",
    "version": "2.0"
  },
  "bufferViews": [
    {
      "buffer": 0,
      "byteLength": 162600,
      "name": "floatBufferViews",
      "target": 34963
    },
    {
      "buffer": 0,
      "byteLength": 64240,
      "byteOffset": 162600,
      "byteStride": 8,
      "name": "floatBufferViews",
      "target": 34962
    },
    {
      "buffer": 0,
      "byteLength": 192720,
      "byteOffset": 226840,
      "byteStride": 12,
      "name": "floatBufferViews",
      "target": 34962
    },
    {
      "buffer": 0,
      "byteLength": 128480,
      "byteOffset": 419560,
      "byteStride": 16,
      "name": "floatBufferViews",
      "target": 34962
    }
  ],
  "buffers": [
    {
      "byteLength": 548040,
      "uri": "scene.bin"
    }
  ],
  "images": [
    {
      "uri": "textures/Kerosene_Lamp_baseColor.png"
    },
    {
      "uri": "textures/Kerosene_Lamp_metallicRoughness.png"
    },
    {
      "uri": "textures/Kerosene_Lamp_emissive.jpeg"
    },
    {
      "uri": "textures/Kerosene_Lamp_normal.png"
    }
  ],
  "materials": [
    {
      "alphaMode": "BLEND",
      "doubleSided": true,
      "emissiveFactor": [
        1.0,
        1.0,
        1.0
      ],
      "emissiveTexture": {
        "index": 2
      },
      "name": "Kerosene_Lamp",
      "normalTexture": {
        "index": 3
      },
      "occlusionTexture": {
        "index": 1
      },
      "pbrMetallicRoughness": {
        "baseColorTexture": {
          "index": 0
        },
        "metallicRoughnessTexture": {
          "index": 1
        }
      }
    }
  ],
  "meshes": [
    {
      "name": "defaultMaterial",
      "primitives": [
        {
          "attributes": {
            "NORMAL": 1,
            "POSITION": 0,
            "TANGENT": 2,
            "TEXCOORD_0": 3
          },
          "indices": 4,
          "material": 0,
          "mode": 4
        }
      ]
    }
  ],
  "nodes": [
    {
      "children": [
        1
      ],
      "matrix": [
        0.23288343846797943,
        0.0,
        0.0,
        0.0,
        0.0,
        5.171051108820533e-17,
        -0.23288343846797943,
        0.0,
        0.0,
        0.23288343846797943,
        5.171051108820533e-17,
        0.0,
        0.0,
        0.0,
        0.0,
        1.0
      ],
      "name": "Sketchfab_model"
    },
    {
      "children": [
        2
      ],
      "matrix": [
        1.0,
        0.0,
        0.0,
        0.0,
        0.0,
        -4.371139006309477e-08,
        0.999999999999999,
        0.0,
        0.0,
        -0.999999999999999,
        -4.371139006309477e-08,
        0.0,
        0.0,
        0.0,
        0.0,
        1.0
      ],
      "name": "Collada visual scene group"
    },
    {
      "children": [
        3
      ],
      "name": "Kerosene"
    },
    {
      "mesh": 0,
      "name": "defaultMaterial"
    }
  ],
  "samplers": [
    {
      "magFilter": 9729,
      "minFilter": 9987,
      "wrapS": 10497,
      "wrapT": 10497
    }
  ],
  "scene": 0,
  "scenes": [
    {
      "name": "Sketchfab_Scene",
      "nodes": [
        0
      ]
    }
  ],
  "textures": [
    {
      "sampler": 0,
      "source": 0
    },
    {
      "sampler": 0,
      "source": 1
    },
    {
      "sampler": 0,
      "source": 2
    },
    {
      "sampler": 0,
      "source": 3
    }
  ]
}
